# xmcd
#
# Track frame offsets:
#	150
#	7879
#	13359
#	18949
#	25990
#
# Disc length: 436 seconds
#
# Revision: 1
# Processed by: cddbd v1.5.2PL0 Copyright (c) Steve Scherf et al.
# Submitted via: audiograbber 1.83.01
#
DISCID=2e01b205
DTITLE=Sheryl Crow - C'mon C'mon [CD ingle)
DYEAR=2002
DGENRE=Pop/Rock
TTITLE0=Sheryl Crow feat. Liz Phair - Soak Up The Sun
TTITLE1=Sheryl Crow - Steve McQueen
TTITLE2=Sheryl Crow feat. Lenny Kravitz - You're An Original
TTITLE3=Sheryl Crow feat. Stevie Nicks - C'mon C'mon
TTITLE4=Sheryl Crow feat Don Henley - I's So Easy
EXTD=
EXTT0=
EXTT1=
EXTT2=
EXTT3=
EXTT4=
PLAYORDER=
